<?xml version="1.0" encoding="UTF-8"?>
<svg id="Layer_1" xmlns="http://www.w3.org/2000/svg" version="1.1" width="240" height="100" viewBox="0 0 219 112.95">
  <!-- Generator: Adobe Illustrator 30.0.0, SVG Export Plug-In . SVG Version: 2.1.1 Build 123)  -->
  <defs>
    <style>
      .st0 {
        isolation: isolate;
      }

      .st1 {
        fill: #fbe9e8;
      }
    </style>
  </defs>
  <g class="st0">
    <g class="st0">
      <path class="st1" d="M38.43,49.69c0,6.21-1.98,10.81-5.95,13.79-1.92,1.46-4.67,2.38-8.26,2.74-.98.06-3.88.09-8.71.09h-7.81c-.73,0-1.09-.26-1.09-.78s.66-.78,1.98-.78c1.54,0,2.44-.23,2.72-.68s.42-1.84.42-4.16V10.51c0-2.68-.09-4.23-.26-4.66-.3-.73-1.39-1.13-3.27-1.19-1.15,0-1.73-.32-1.73-.96,0-.58.53-.87,1.6-.87h.77c.47.18.9.27,1.28.27h12.48c4.61.06,8.05,1.16,10.31,3.29,2.65,2.5,3.97,6.12,3.97,10.87,0,4.14-1.09,7.54-3.27,10.18-2.18,2.65-5.23,4.31-9.15,4.98v.55c3.88.36,6.91,1.52,9.09,3.47,3.24,2.92,4.87,7.34,4.87,13.24ZM29.85,18.18c0-5.85-.94-9.74-2.82-11.69-.98-1.04-2.84-1.55-5.57-1.55-.73,0-1.86.09-3.39.27v26.49h.58l3.52-.18c2.43-.12,4.32-1.35,5.67-3.7,1.34-2.34,2.02-5.56,2.02-9.64ZM31.71,48.69c0-7.67-2.18-12.42-6.53-14.25-1.28-.55-3.65-.82-7.11-.82v27.22c0,1.77.13,2.77.38,3.01.43.43,1.62.64,3.59.64,2.94,0,5.29-1.34,7.04-4.02,1.75-2.68,2.63-6.61,2.63-11.78Z"/>
      <path class="st1" d="M76.84,59.1c0,1.59-.06,4.2-.19,7.86h-.7c-.26,0-.87-.06-1.85-.18-.98-.12-2.09-.18-3.32-.18l-26.58-.27c-.72,0-1.09-.27-1.09-.82,0-.42.58-.7,1.73-.82,1.62-.12,2.59-.38,2.91-.78.32-.39.48-1.54.48-3.42V9.14c0-2.25-.16-3.56-.48-3.93-.32-.37-1.46-.55-3.43-.55-.81,0-1.22-.33-1.22-1,0-.55.26-.82.77-.82h.58c1.41.18,4.2.27,8.39.27.38,0,1.13-.05,2.24-.14,1.11-.09,2.03-.14,2.75-.14h.7c.77,0,1.15.31,1.15.91,0,.37-.12.59-.35.68-.24.09-.97.17-2.21.23-1.24.06-1.98.35-2.21.87-.23.52-.35,2.12-.35,4.79v53.89c1.15.06,2.75.09,4.8.09,4.99,0,8.51-.36,10.56-1.1,2.05-.73,3.43-2.1,4.16-4.11.73-2.01,1.15-4.72,1.28-8.13.04-.79.29-1.19.74-1.19.53,0,.78.46.74,1.37v7.95Z"/>
      <path class="st1" d="M120.89,34.99c0,9.07-1.91,16.75-5.73,23.02-3.82,6.27-8.5,9.41-14.05,9.41-5.89,0-10.84-3.18-14.85-9.54-4.01-6.36-6.02-14.2-6.02-23.52s1.93-17.28,5.79-23.34c3.86-6.06,8.8-9.09,14.82-9.09,5.68,0,10.44,3.17,14.28,9.5,3.84,6.33,5.76,14.19,5.76,23.57ZM113.72,35.45c0-11.18-1.6-19.88-4.8-26.11-2.01-3.91-4.8-5.86-8.39-5.86s-6.06,1.5-7.94,4.49c-3.46,5.5-5.19,14.44-5.19,26.84,0,9.83,1.21,17.47,3.62,22.9s5.79,8.15,10.15,8.15c4.05,0,7.11-2.57,9.15-7.7,2.26-5.68,3.39-13.25,3.39-22.72Z"/>
      <path class="st1" d="M166.98,34.99c0,9.07-1.91,16.75-5.73,23.02-3.82,6.27-8.51,9.41-14.05,9.41-5.89,0-10.84-3.18-14.85-9.54-4.01-6.36-6.02-14.2-6.02-23.52s1.93-17.28,5.79-23.34c3.86-6.06,8.8-9.09,14.82-9.09,5.67,0,10.43,3.17,14.28,9.5,3.84,6.33,5.76,14.19,5.76,23.57ZM159.81,35.45c0-11.18-1.6-19.88-4.8-26.11-2.01-3.91-4.8-5.86-8.39-5.86s-6.06,1.5-7.94,4.49c-3.46,5.5-5.19,14.44-5.19,26.84,0,9.83,1.21,17.47,3.62,22.9s5.79,8.15,10.15,8.15c4.05,0,7.11-2.57,9.15-7.7,2.26-5.68,3.39-13.25,3.39-22.72Z"/>
      <path class="st1" d="M217.49,65.73c0,.52-.45.77-1.34.77h-15.95c-.89,0-1.34-.27-1.34-.82,0-.61.62-.92,1.86-.92,2.18,0,3.5-.34,3.97-1.01.21-.31.32-2.35.32-6.13V10.24c0,.06-.26,1.13-.77,3.2-1.71,7.36-4.2,18.44-7.46,33.23l-2.97,14.54c-.6,2.86-1.02,4.29-1.28,4.29-.3,0-.62-.73-.96-2.19-1.23-5.54-4.72-19.37-10.46-41.49l-2.54-9.75c0,1.16,0,2.74,0,4.75v29.69c0,11.14.06,16.78.19,16.9.3.79,1.32,1.19,3.07,1.19,1.41,0,2.11.3,2.11.91,0,.67-.45,1.01-1.34,1.01-.56,0-1.07-.06-1.54-.18-.6-.12-1.13-.18-1.6-.18l-7.36.36c-.77,0-1.15-.27-1.15-.82,0-.61,1.22-.94,3.65-1.01,1.02,0,1.62-.24,1.79-.73s.26-2.07.26-4.76V15.37c0-5.06-.04-7.81-.13-8.23-.17-.85-.53-1.43-1.09-1.74s-1.75-.55-3.58-.73c-.68-.06-1.02-.33-1.02-.82,0-.67.62-1.01,1.88-1.01h4.47c2.55,0,4.34-.02,5.38-.07.21.79,1.45,5.58,3.71,14.37.97,3.66,3.7,14.32,8.18,31.99.81-3.96,1.63-7.87,2.48-11.71l6.84-30.18c.42-1.74.8-3.18,1.13-4.31l9.5-.09c1.39,0,2.19.09,2.4.28.21.18.32.46.32.82,0,.61-.36.92-1.09.92-1.19,0-2.01.06-2.43.18-1.02.24-1.73.73-2.11,1.47-.22.43-.32,4-.32,10.72v42.6c0,2.44.17,3.88.51,4.31.56.55,1.94.82,4.16.82h.39c.85,0,1.28.26,1.28.78Z"/>
    </g>
  </g>
  <g class="st0">
    <g class="st0">
      <path class="st1" d="M119.49,76.65c.67-.67,1.44-1.01,2.3-1.01s1.58.23,2.15.68c.57.46,1.01,1.04,1.32,1.75.55,1.38.83,2.71.83,4.01s-.2,2.47-.59,3.53-1.05,1.98-2,2.76c-.94.78-2.07,1.17-3.38,1.17-.86,0-1.61-.15-2.24-.46-.64-.31-1.13-.69-1.49-1.16-.36-.47-.64-1.05-.85-1.76-.35-1.12-.52-2.53-.52-4.25l.09-2.37c.14-1.58.22-2.94.22-4.08l-.12-2.32c-.04-.32-.15-.6-.32-.84-.17-.24-.4-.46-.69-.64-.27-.22-.4-.44-.4-.64,0-.45.2-.82.61-1.12l.22-.14c.25-.22.79-.52,1.64-.88.85-.36,1.59-.55,2.21-.55s.94.26.94.78c-.22,1.75-.34,4.25-.34,7.48.04.13.1.2.17.2s.15-.06.23-.17ZM119.56,84.34c.34.44.76.66,1.28.66s.91-.21,1.2-.64c.29-.43.43-.98.43-1.65s-.21-1.39-.62-2.17-.95-1.16-1.63-1.16c-.45,0-.81.22-1.09.64-.28.43-.41.91-.41,1.45s.05,1.04.17,1.51c.11.46.34.92.67,1.35Z"/>
      <path class="st1" d="M137.55,80.17l-.09,3.88c0,1.55.22,2.44.65,2.68.27.19.4.43.4.73,0,.54-.39,1.04-1.18,1.51-.79.47-1.59.7-2.41.7-.41,0-.72-.08-.92-.24-.21-.16-.31-.33-.31-.52,0-.5-.07-.75-.22-.75-.02,0-.15.11-.38.32-.24.21-.59.43-1.05.64-.46.22-1.05.32-1.75.32s-1.33-.16-1.87-.48c-.54-.32-.92-.73-1.12-1.23-.37-.84-.55-1.62-.55-2.35s.12-1.41.37-2.04c.25-.63.55-1.14.92-1.54.37-.39.8-.74,1.29-1.05.49-.31.95-.53,1.38-.67s.87-.26,1.32-.35c.63-.11,1.08-.17,1.32-.17l.31-.36c-.02-.63-.53-.95-1.52-.95s-1.81.18-2.44.53c-.24.15-.49.22-.74.22-.49,0-.74-.34-.74-1.01,0-1.73,1.51-2.6,4.55-2.6,2.34,0,3.8.71,4.39,2.12.27.63.4,1.51.4,2.63ZM130.94,84.61c0,.78.31,1.17.92,1.17s1.11-.29,1.49-.87c.38-.58.57-1.09.57-1.54,0-.84-.33-1.26-.98-1.26-.59,0-1.08.27-1.45.81-.37.54-.55,1.1-.55,1.67Z"/>
      <path class="st1" d="M150.67,75.53c-.37,3.02-.55,6.08-.55,9.2s-.18,5.36-.54,6.72c-.36,1.36-1.05,2.48-2.09,3.35s-2.27,1.31-3.7,1.31c-.84,0-1.56-.21-2.18-.63-.62-.42-.92-1-.92-1.75,0-.47.14-.83.42-1.1.27-.27.56-.43.84-.49l.43-.06c.74-.04,1.36-.21,1.86-.53.5-.32.85-.71,1.06-1.17.33-.75.49-1.46.49-2.15v-.22c-.02-.13-.09-.2-.22-.2l-.31.14c-.27.35-.6.63-1,.82-.4.19-.74.31-1.03.35l-.4.03c-.88,0-1.63-.21-2.24-.63s-1.04-.96-1.29-1.63c-.43-1.17-.65-2.26-.65-3.27s.1-1.95.31-2.83.53-1.75.97-2.58c.44-.84,1.07-1.52,1.89-2.04.82-.52,1.68-.78,2.58-.78s1.59.19,2.06.56c.06.11.15.17.28.17s.23-.06.31-.17c.76-.88,1.65-1.31,2.67-1.31.63,0,.95.3.95.89ZM144.63,84.41c.5,0,.91-.24,1.23-.73.32-.48.47-1.14.46-1.95s-.19-1.53-.55-2.12-.78-.89-1.28-.89-.9.25-1.21.74c-.32.49-.48,1.14-.48,1.93s.18,1.5.54,2.11c.36.61.79.92,1.29.92Z"/>
      <path class="st1" d="M157.59,75.39c1.36,0,2.43.32,3.2.95.77.63,1.15,1.59,1.15,2.88s-.56,2.35-1.68,3.18c-1.12.84-2.52,1.26-4.22,1.26-.24,0-.37.11-.37.33,0,.45.18.83.54,1.16.36.33.85.49,1.48.49s1.19-.26,1.69-.78c.5-.52.94-.78,1.32-.78s.68.15.91.45c.23.3.34.72.34,1.27s-.15,1.1-.44,1.65c-.3.55-.65.96-1.06,1.24-.41.28-.87.5-1.38.67-.76.26-1.56.39-2.41.39s-1.64-.19-2.38-.56-1.31-.88-1.72-1.51c-.8-1.27-1.2-2.67-1.2-4.2s.2-2.87.62-4.01c.41-1.14,1.11-2.1,2.1-2.89s2.17-1.19,3.53-1.19ZM155.49,80.76c0,.11.04.21.12.28.08.09.19.14.31.14,1.17-.09,1.95-.6,2.34-1.51.1-.2.17-.45.22-.73-.02-.65-.31-.98-.86-.98-.64,0-1.12.28-1.46.84-.34.56-.56,1.21-.66,1.96Z"/>
      <path class="st1" d="M167.87,69.39c0,1.1-.07,2.52-.2,4.26-.13,1.74-.2,3.6-.2,5.57s.02,3.62.08,4.93c.05,1.31.4,2.18,1.06,2.61.35.19.52.48.52.87s-.27.75-.8,1.09c-.98.61-2.09.92-3.32.92-.84,0-1.36-.32-1.57-.95-.06-.26-.09-.57-.09-.94s.02-.78.05-1.24c.03-.46.07-1.07.11-1.81.18-3.35.27-6,.27-7.95s-.03-3.12-.09-3.53c-.08-.67-.34-1.14-.77-1.42l-.22-.14c-.27-.17-.4-.39-.4-.67,0-.61.58-1.2,1.74-1.76s2.06-.84,2.72-.84c.74,0,1.11.34,1.11,1.01Z"/>
      <path class="st1" d="M175.06,75.14c2.7,0,4.06.73,4.06,2.18,0,.41-.15.75-.45,1.03-.3.28-.63.42-1.01.42s-.74-.09-1.09-.28-.74-.28-1.17-.28c-1.05,0-1.57.27-1.57.81,0,.24.16.45.49.62,2.42,1.1,3.87,1.99,4.36,2.68.59.8.89,1.76.89,2.88,0,.41-.1.9-.31,1.48-.21.58-.48,1.07-.83,1.47-.35.4-.9.77-1.66,1.1s-1.66.5-2.7.5c-.74,0-1.53-.11-2.37-.34-1.7-.45-2.55-1.37-2.55-2.76,0-.65.2-1.21.61-1.69s.92-.71,1.54-.71,1.05.17,1.32.5c.02.02.08.1.19.25.1.15.19.26.28.34.27.24.61.36,1.04.36s.77-.1,1.02-.29c.24-.2.37-.46.37-.8s-.29-.68-.86-1.03c-.57-.35-1.2-.66-1.89-.92-.69-.26-1.32-.68-1.89-1.24-.57-.57-.86-1.23-.86-2,0-1.3.47-2.34,1.4-3.11.93-.77,2.14-1.16,3.64-1.16Z"/>
    </g>
  </g>
</svg>