<?xml version="1.0" encoding="UTF-8"?>
<svg id="Layer_1" xmlns="http://www.w3.org/2000/svg" viewBox="0 0 103.78 47.06">
  <defs>
    <style>
      .cls-1 {
        fill: #cde5f9;
      }
    </style>
  </defs>
  <g>
    <path class="cls-1" d="M.25,37.61l5.24-.03c.17,1.69,1.15,2.66,2.87,2.66,1.42,0,2.42-.6,2.42-1.86,0-.94-.55-1.54-1.72-1.86l-4.34-1.14c-2.77-.71-4.27-2.74-4.27-5.74,0-4.06,2.77-6.46,7.61-6.46,4.52,0,7.26,2.46,7.34,6.37h-5.24c-.15-1.17-.82-2-2.37-2-1.35,0-2.22.54-2.22,1.63,0,.86.52,1.34,1.72,1.66l4.34,1.14c2.85.74,4.34,2.88,4.34,5.94,0,4.48-3.17,6.83-7.64,6.83-4.99,0-8.01-2.74-8.09-7.14Z"/>
    <path class="cls-1" d="M17.02,38.61c0-3.8,2.07-6.03,7.29-6.51l4.04-.37v-1.11c0-1.83-.92-2.86-2.57-2.86s-2.55.91-2.72,2.37h-5.19c.25-4.34,3.3-6.94,8.09-6.94,5.17,0,7.44,2.66,7.44,8.4v7.31c0,.86.22,1.08.87,1.08.25,0,.45-.03.67-.09h.1v4.54c-.72.14-1.37.23-2.12.23-2.55,0-3.74-.94-3.74-2.97v-.14h-.1c-1.22,1.94-3.2,3.2-5.74,3.2-3.62,0-6.32-2.2-6.32-6.14ZM24.51,40.24c2.27,0,3.84-1.63,3.84-4v-.77l-3.25.34c-2.05.23-2.85.89-2.85,2.37,0,1.4.87,2.06,2.25,2.06Z"/>
    <path class="cls-1" d="M44.5,39.81c1.35,0,2.8-.34,4.19-.89h.1v4.74c-1.92.74-3.62,1.09-5.34,1.09-4.44,0-6.76-2.29-6.76-7.6v-13.54h5.12v12.94c0,2.54.77,3.26,2.7,3.26Z"/>
    <path class="cls-1" d="M50.59,37.69v-9.37h-2.95v-4.71h14.13v4.71h-6.07v8.48c0,2.26.75,3,2.7,3,1,0,2-.2,2.92-.51h.1v4.71c-1.4.49-3.12.74-4.74.74-4.37,0-6.09-1.97-6.09-7.06Z"/>
    <path class="cls-1" d="M72.13,23.61h6.62l5.54,20.71h-5.42l-.7-3.11h-5.59l-.72,3.11h-5.32l5.59-20.71ZM77.2,36.92l-1.27-5.6-.45-2.43h-.1c-.12.71-.3,1.71-.47,2.43l-1.32,5.6h3.62Z"/>
    <path class="cls-1" d="M85.16,17.84h5.12v4.4h-5.12v-4.4ZM85.16,23.61h5.12v20.71h-5.12v-20.71Z"/>
    <path class="cls-1" d="M92.5,23.61h4.77v3.34h.1c1.12-2.6,2.7-3.77,4.84-3.77.57,0,1.1.09,1.57.29v5.57h-.1c-.52-.17-1-.26-1.6-.26-2.82,0-4.47,1.91-4.47,5.68v9.85h-5.12v-20.71Z"/>
  </g>
  <text/>
</svg>