<?xml version="1.0" encoding="UTF-8"?>
<svg xmlns="http://www.w3.org/2000/svg" version="1.1" viewBox="0 0 107.6 30.5">
  <defs>
    <style>
      .cls-1 {
        fill: #294969;
      }
    </style>
  </defs>
  <!-- Generator: Adobe Illustrator 28.7.10, SVG Export Plug-In . SVG Version: 1.2.0 Build 236)  -->
  <g>
    <g id="Layer_1">
      <g>
        <path class="cls-1" d="M2.1,21h5.2c.2,1.7,1.1,2.6,2.9,2.6s2.4-.6,2.4-1.9-.5-1.5-1.7-1.9l-4.3-1.1c-2.8-.7-4.3-2.7-4.3-5.7s2.8-6.5,7.6-6.5,7.3,2.5,7.3,6.4h-5.2c-.1-1.2-.8-2-2.4-2s-2.2.5-2.2,1.6.5,1.3,1.7,1.7l4.3,1.1c2.8.7,4.3,2.9,4.3,5.9,0,4.5-3.2,6.8-7.6,6.8s-8-2.7-8.1-7.1Z"/>
        <path class="cls-1" d="M18.9,22c0-3.8,2.1-6,7.3-6.5l4-.4v-1.1c0-1.8-.9-2.9-2.6-2.9s-2.5.9-2.7,2.4h-5.2c.2-4.3,3.3-6.9,8.1-6.9s7.4,2.7,7.4,8.4v7.3c0,.9.2,1.1.9,1.1s.4,0,.7,0h0v4.5c-.7.1-1.4.2-2.1.2-2.5,0-3.7-.9-3.7-3h0c0-.1,0-.1,0-.1-1.2,1.9-3.2,3.2-5.7,3.2-3.6,0-6.3-2.2-6.3-6.1ZM26.4,23.7c2.3,0,3.8-1.6,3.8-4v-.8l-3.2.3c-2,.2-2.8.9-2.8,2.4s.9,2.1,2.2,2.1Z"/>
        <path class="cls-1" d="M46.4,23.2c1.3,0,2.8-.3,4.2-.9h0v4.7c-1.9.7-3.6,1.1-5.3,1.1-4.4,0-6.8-2.3-6.8-7.6V7h5.1v12.9c0,2.5.8,3.3,2.7,3.3Z"/>
        <path class="cls-1" d="M52.5,21.1v-9.4h-2.9v-4.7h14.1v4.7h-6.1v8.5c0,2.3.7,3,2.7,3s2-.2,2.9-.5h0v4.7c-1.4.5-3.1.7-4.7.7-4.4,0-6.1-2-6.1-7.1Z"/>
        <path class="cls-1" d="M74,7h6.6l5.5,20.7h-5.4l-.7-3.1h-5.6l-.7,3.1h-5.3l5.6-20.7ZM79.1,20.3l-1.3-5.6-.4-2.4h0c-.1.7-.3,1.7-.5,2.4l-1.3,5.6h3.6Z"/>
        <path class="cls-1" d="M87,1.3h5.1v4.4h-5.1V1.3ZM87,7h5.1v20.7h-5.1V7Z"/>
        <path class="cls-1" d="M94.4,7h4.8v3.3h0c1.1-2.6,2.7-3.8,4.8-3.8s1.1,0,1.6.3v5.6h-.1c-.5-.2-1-.3-1.6-.3-2.8,0-4.5,1.9-4.5,5.7v9.9h-5.1V7Z"/>
      </g>
      <text/>
    </g>
  </g>
</svg>